# xmcd
#
# Track frame offsets: 
#        150
#        17835
#        39430
#
# Disc length: 766 seconds
#
# Revision: 3
# Processed by: cddbd v1.5.2PL0 Copyright (c) Steve Scherf et al.
# Submitted via: ExactAudioCopy v1.3
#
DISCID=1a02fc03
DTITLE=Mariah Carey - Dreamlover
DYEAR=1993
DGENRE=R&B
TTITLE0=Dreamlover
TTITLE1=Do You Think Of Me
TTITLE2=Someday
EXTD=YEAR: 1993
EXTT0=
EXTT1=
EXTT2=
PLAYORDER=
